M48
; DRILL file {KiCad 7.0.10-7.0.10~ubuntu22.04.1} date Mi 07 Feb 2024 13:06:54 CET
; FORMAT={-:-/ absolute / inch / decimal}
; #@! TF.CreationDate,2024-02-07T13:06:54+01:00
; #@! TF.GenerationSoftware,Kicad,Pcbnew,7.0.10-7.0.10~ubuntu22.04.1
; #@! TF.FileFunction,Plated,1,2,PTH
FMAT,2
INCH
; #@! TA.AperFunction,Plated,PTH,ViaDrill
T1C0.0157
; #@! TA.AperFunction,Plated,PTH,ComponentDrill
T2C0.0394
; #@! TA.AperFunction,Plated,PTH,ComponentDrill
T3C0.0433
; #@! TA.AperFunction,Plated,PTH,ComponentDrill
T4C0.0787
; #@! TA.AperFunction,Plated,PTH,ViaDrill
T5C0.1260
%
G90
G05
T1
X1.2008Y-2.6181
X1.2402Y-5.689
X1.3386Y-6.1024
X1.4599Y-3.6647
X1.4961Y-6.1024
X1.6535Y-5.7874
X1.6535Y-6.1024
X2.0014Y-0.9018
X2.0276Y-3.0512
X2.0276Y-4.2323
X2.0276Y-5.1181
X2.0276Y-5.4134
X2.0276Y-6.5945
X2.2047Y-3.3169
X2.2441Y-2.7756
X2.253Y-4.211
X2.3031Y-3.3169
X2.4705Y-5.3839
X2.4803Y-3.0217
X2.4803Y-3.3169
X2.5197Y-6.0138
X2.5295Y-3.6614
X2.6181Y-3.6614
X2.6181Y-6.0138
X2.7067Y-5.3839
X2.7165Y-3.0217
X2.9528Y-4.0354
X3.0906Y-2.7559
X3.0906Y-3.0709
X3.0906Y-4.1929
X3.0906Y-5.1181
X3.0906Y-5.4331
X3.0906Y-6.5551
X3.9961Y-4.2913
X3.9961Y-6.6339
X4.1339Y-4.0354
X4.1339Y-6.3976
X5.0591Y-3.0906
X5.0591Y-3.937
X5.0591Y-4.252
X5.0591Y-5.4528
X5.0591Y-6.2992
X5.0591Y-6.6142
X5.9646Y-3.937
X5.9646Y-6.2992
X7.0276Y-3.937
X7.0276Y-6.2992
T2
X0.8351Y-1.8669
X0.8351Y-1.9669
X0.8351Y-2.0669
X0.8351Y-2.1669
X0.8351Y-2.2669
X0.8351Y-5.6858
X0.8351Y-5.7858
X0.8351Y-5.8858
X0.8351Y-5.9858
X0.8351Y-6.0858
X0.9351Y-1.8669
X0.9351Y-1.9669
X0.9351Y-2.0669
X0.9351Y-2.1669
X0.9351Y-2.2669
X0.9351Y-5.6858
X0.9351Y-5.7858
X0.9351Y-5.8858
X0.9351Y-5.9858
X0.9351Y-6.0858
X0.9547Y-2.9705
X0.9547Y-3.0705
X0.9547Y-3.1705
X0.9547Y-3.2705
X0.9547Y-3.3705
X0.9547Y-3.4705
X0.9547Y-3.5705
X0.9547Y-3.6705
X0.9547Y-3.7705
X0.9547Y-3.8705
X0.9547Y-3.9705
X0.9547Y-4.0705
X0.9547Y-4.1705
X0.9547Y-4.2705
X0.9547Y-4.3705
X0.9547Y-4.4705
X1.4764Y-3.2087
X1.4764Y-4.3898
X1.4764Y-5.5709
X1.4764Y-6.752
X1.5748Y-3.2087
X1.5748Y-4.3898
X1.5748Y-5.5709
X1.5748Y-6.752
X1.6732Y-3.2087
X1.6732Y-4.3898
X1.6732Y-5.5709
X1.6732Y-6.752
X1.7598Y-0.7972
X1.8598Y-0.7972
X1.9598Y-0.7972
X2.0598Y-0.7972
X3.4449Y-3.2087
X3.4449Y-4.3898
X3.4449Y-5.5709
X3.4449Y-6.752
X3.5433Y-3.2087
X3.5433Y-4.3898
X3.5433Y-5.5709
X3.5433Y-6.752
X3.6417Y-3.2087
X3.6417Y-4.3898
X3.6417Y-5.5709
X3.6417Y-6.752
X5.4134Y-3.2087
X5.4134Y-4.3898
X5.4134Y-5.5709
X5.4134Y-6.752
X5.5118Y-3.2087
X5.5118Y-4.3898
X5.5118Y-5.5709
X5.5118Y-6.752
X5.6102Y-3.2087
X5.6102Y-4.3898
X5.6102Y-5.5709
X5.6102Y-6.752
X7.3819Y-3.2087
X7.3819Y-4.3898
X7.3819Y-5.5709
X7.3819Y-6.752
X7.4803Y-3.2087
X7.4803Y-4.3898
X7.4803Y-5.5709
X7.4803Y-6.752
X7.5787Y-3.2087
X7.5787Y-4.3898
X7.5787Y-5.5709
X7.5787Y-6.752
T3
X2.3327Y-1.1713
X2.3327Y-1.3484
X2.5886Y-1.1713
X2.5886Y-1.3484
X2.9429Y-2.0571
X2.9429Y-2.2343
X3.1988Y-2.0571
X3.1988Y-2.2343
X3.9154Y-2.0571
X3.9154Y-2.2343
X4.1713Y-2.0571
X4.1713Y-2.2343
X4.8839Y-2.0571
X4.8839Y-2.2343
X5.1398Y-2.0571
X5.1398Y-2.2343
X5.8563Y-2.0571
X5.8563Y-2.2343
X6.1122Y-2.0571
X6.1122Y-2.2343
X6.4665Y-1.1713
X6.4665Y-1.3484
X6.7224Y-1.1713
X6.7224Y-1.3484
T5
X0.7087Y-0.689
X0.7087Y-6.752
X8.3465Y-0.689
X8.3465Y-6.752
T4
G00X1.3543Y-2.9232
M15
G01X1.3543Y-2.9035
M16
G05
G00X1.3543Y-4.1043
M15
G01X1.3543Y-4.0846
M16
G05
G00X1.3543Y-5.2854
M15
G01X1.3543Y-5.2657
M16
G05
G00X1.3543Y-6.4665
M15
G01X1.3543Y-6.4469
M16
G05
G00X1.7953Y-2.9232
M15
G01X1.7953Y-2.9035
M16
G05
G00X1.7953Y-4.1043
M15
G01X1.7953Y-4.0846
M16
G05
G00X1.7953Y-5.2854
M15
G01X1.7953Y-5.2657
M16
G05
G00X1.7953Y-6.4665
M15
G01X1.7953Y-6.4469
M16
G05
G00X3.3228Y-2.9232
M15
G01X3.3228Y-2.9035
M16
G05
G00X3.3228Y-4.1043
M15
G01X3.3228Y-4.0846
M16
G05
G00X3.3228Y-5.2854
M15
G01X3.3228Y-5.2657
M16
G05
G00X3.3228Y-6.4665
M15
G01X3.3228Y-6.4469
M16
G05
G00X3.7638Y-2.9232
M15
G01X3.7638Y-2.9035
M16
G05
G00X3.7638Y-4.1043
M15
G01X3.7638Y-4.0846
M16
G05
G00X3.7638Y-5.2854
M15
G01X3.7638Y-5.2657
M16
G05
G00X3.7638Y-6.4665
M15
G01X3.7638Y-6.4469
M16
G05
G00X5.2913Y-2.9232
M15
G01X5.2913Y-2.9035
M16
G05
G00X5.2913Y-4.1043
M15
G01X5.2913Y-4.0846
M16
G05
G00X5.2913Y-5.2854
M15
G01X5.2913Y-5.2657
M16
G05
G00X5.2913Y-6.4665
M15
G01X5.2913Y-6.4469
M16
G05
G00X5.7323Y-2.9232
M15
G01X5.7323Y-2.9035
M16
G05
G00X5.7323Y-4.1043
M15
G01X5.7323Y-4.0846
M16
G05
G00X5.7323Y-5.2854
M15
G01X5.7323Y-5.2657
M16
G05
G00X5.7323Y-6.4665
M15
G01X5.7323Y-6.4469
M16
G05
G00X7.2598Y-2.9232
M15
G01X7.2598Y-2.9035
M16
G05
G00X7.2598Y-4.1043
M15
G01X7.2598Y-4.0846
M16
G05
G00X7.2598Y-5.2854
M15
G01X7.2598Y-5.2657
M16
G05
G00X7.2598Y-6.4665
M15
G01X7.2598Y-6.4469
M16
G05
G00X7.7008Y-2.9232
M15
G01X7.7008Y-2.9035
M16
G05
G00X7.7008Y-4.1043
M15
G01X7.7008Y-4.0846
M16
G05
G00X7.7008Y-5.2854
M15
G01X7.7008Y-5.2657
M16
G05
G00X7.7008Y-6.4665
M15
G01X7.7008Y-6.4469
M16
G05
M30
