%TF.GenerationSoftware,KiCad,Pcbnew,7.0.10-7.0.10~ubuntu22.04.1*%
%TF.CreationDate,2024-02-07T13:06:57+01:00*%
%TF.ProjectId,polykit-x-controlboard,706f6c79-6b69-4742-9d78-2d636f6e7472,v0.0.2*%
%TF.SameCoordinates,Original*%
%TF.FileFunction,Soldermask,Bot*%
%TF.FilePolarity,Negative*%
%FSLAX46Y46*%
G04 Gerber Fmt 4.6, Leading zero omitted, Abs format (unit mm)*
G04 Created by KiCad (PCBNEW 7.0.10-7.0.10~ubuntu22.04.1) date 2024-02-07 13:06:57*
%MOMM*%
%LPD*%
G01*
G04 APERTURE LIST*
G04 Aperture macros list*
%AMRoundRect*
0 Rectangle with rounded corners*
0 $1 Rounding radius*
0 $2 $3 $4 $5 $6 $7 $8 $9 X,Y pos of 4 corners*
0 Add a 4 corners polygon primitive as box body*
4,1,4,$2,$3,$4,$5,$6,$7,$8,$9,$2,$3,0*
0 Add four circle primitives for the rounded corners*
1,1,$1+$1,$2,$3*
1,1,$1+$1,$4,$5*
1,1,$1+$1,$6,$7*
1,1,$1+$1,$8,$9*
0 Add four rect primitives between the rounded corners*
20,1,$1+$1,$2,$3,$4,$5,0*
20,1,$1+$1,$4,$5,$6,$7,0*
20,1,$1+$1,$6,$7,$8,$9,0*
20,1,$1+$1,$8,$9,$2,$3,0*%
G04 Aperture macros list end*
%ADD10R,2.000000X2.000000*%
%ADD11C,2.000000*%
%ADD12R,2.500000X3.000000*%
%ADD13R,1.700000X1.700000*%
%ADD14O,1.700000X1.700000*%
%ADD15RoundRect,0.250000X0.600000X0.600000X-0.600000X0.600000X-0.600000X-0.600000X0.600000X-0.600000X0*%
%ADD16C,1.700000*%
G04 APERTURE END LIST*
D10*
%TO.C,SW9*%
X87500000Y-81500000D03*
D11*
X92500000Y-81500000D03*
X90000000Y-81500000D03*
D12*
X84400000Y-74000000D03*
X95600000Y-74000000D03*
%TD*%
D11*
%TO.C,SW3*%
X99450000Y-52250000D03*
X105950000Y-52250000D03*
X99450000Y-56750000D03*
X105950000Y-56750000D03*
%TD*%
%TO.C,SW6*%
X164250000Y-29750000D03*
X170750000Y-29750000D03*
X164250000Y-34250000D03*
X170750000Y-34250000D03*
%TD*%
D10*
%TO.C,SW7*%
X187500000Y-81500000D03*
D11*
X192500000Y-81500000D03*
X190000000Y-81500000D03*
D12*
X184400000Y-74000000D03*
X195600000Y-74000000D03*
%TD*%
D10*
%TO.C,SW15*%
X187500000Y-141500000D03*
D11*
X192500000Y-141500000D03*
X190000000Y-141500000D03*
D12*
X184400000Y-134000000D03*
X195600000Y-134000000D03*
%TD*%
D10*
%TO.C,SW17*%
X87500000Y-141500000D03*
D11*
X92500000Y-141500000D03*
X90000000Y-141500000D03*
D12*
X84400000Y-134000000D03*
X95600000Y-134000000D03*
%TD*%
D10*
%TO.C,SW16*%
X137500000Y-141500000D03*
D11*
X142500000Y-141500000D03*
X140000000Y-141500000D03*
D12*
X134400000Y-134000000D03*
X145600000Y-134000000D03*
%TD*%
D10*
%TO.C,SW8*%
X137500000Y-81500000D03*
D11*
X142500000Y-81500000D03*
X140000000Y-81500000D03*
D12*
X134400000Y-74000000D03*
X145600000Y-74000000D03*
%TD*%
D10*
%TO.C,SW22*%
X187500000Y-171500000D03*
D11*
X192500000Y-171500000D03*
X190000000Y-171500000D03*
D12*
X184400000Y-164000000D03*
X195600000Y-164000000D03*
%TD*%
D10*
%TO.C,SW12*%
X87500000Y-111500000D03*
D11*
X92500000Y-111500000D03*
X90000000Y-111500000D03*
D12*
X84400000Y-104000000D03*
X95600000Y-104000000D03*
%TD*%
D10*
%TO.C,SW20*%
X87500000Y-171500000D03*
D11*
X92500000Y-171500000D03*
X90000000Y-171500000D03*
D12*
X84400000Y-164000000D03*
X95600000Y-164000000D03*
%TD*%
D11*
%TO.C,SW1*%
X59250000Y-29750000D03*
X65750000Y-29750000D03*
X59250000Y-34250000D03*
X65750000Y-34250000D03*
%TD*%
D10*
%TO.C,SW19*%
X37500000Y-171500000D03*
D11*
X42500000Y-171500000D03*
X40000000Y-171500000D03*
D12*
X34400000Y-164000000D03*
X45600000Y-164000000D03*
%TD*%
D10*
%TO.C,SW14*%
X187500000Y-111500000D03*
D11*
X192500000Y-111500000D03*
X190000000Y-111500000D03*
D12*
X184400000Y-104000000D03*
X195600000Y-104000000D03*
%TD*%
D10*
%TO.C,SW11*%
X37500000Y-111500000D03*
D11*
X42500000Y-111500000D03*
X40000000Y-111500000D03*
D12*
X34400000Y-104000000D03*
X45600000Y-104000000D03*
%TD*%
D10*
%TO.C,SW21*%
X137500000Y-171500000D03*
D11*
X142500000Y-171500000D03*
X140000000Y-171500000D03*
D12*
X134400000Y-164000000D03*
X145600000Y-164000000D03*
%TD*%
D11*
%TO.C,SW2*%
X74750000Y-52250000D03*
X81250000Y-52250000D03*
X74750000Y-56750000D03*
X81250000Y-56750000D03*
%TD*%
D10*
%TO.C,SW18*%
X37500000Y-141500000D03*
D11*
X42500000Y-141500000D03*
X40000000Y-141500000D03*
D12*
X34400000Y-134000000D03*
X45600000Y-134000000D03*
%TD*%
D11*
%TO.C,SW5*%
X148750000Y-52250000D03*
X155250000Y-52250000D03*
X148750000Y-56750000D03*
X155250000Y-56750000D03*
%TD*%
%TO.C,SW4*%
X124050000Y-52250000D03*
X130550000Y-52250000D03*
X124050000Y-56750000D03*
X130550000Y-56750000D03*
%TD*%
D10*
%TO.C,SW13*%
X137500000Y-111500000D03*
D11*
X142500000Y-111500000D03*
X140000000Y-111500000D03*
D12*
X134400000Y-104000000D03*
X145600000Y-104000000D03*
%TD*%
D10*
%TO.C,SW10*%
X37500000Y-81500000D03*
D11*
X42500000Y-81500000D03*
X40000000Y-81500000D03*
D12*
X34400000Y-74000000D03*
X45600000Y-74000000D03*
%TD*%
D13*
%TO.C,J1*%
X24250000Y-113550000D03*
D14*
X24250000Y-111010000D03*
X24250000Y-108470000D03*
X24250000Y-105930000D03*
X24250000Y-103390000D03*
X24250000Y-100850000D03*
X24250000Y-98310000D03*
X24250000Y-95770000D03*
X24250000Y-93230000D03*
X24250000Y-90690000D03*
X24250000Y-88150000D03*
X24250000Y-85610000D03*
X24250000Y-83070000D03*
X24250000Y-80530000D03*
X24250000Y-77990000D03*
X24250000Y-75450000D03*
%TD*%
D15*
%TO.C,J2*%
X23752500Y-144420000D03*
D16*
X21212500Y-144420000D03*
X23752500Y-146960000D03*
X21212500Y-146960000D03*
X23752500Y-149500000D03*
X21212500Y-149500000D03*
X23752500Y-152040000D03*
X21212500Y-152040000D03*
X23752500Y-154580000D03*
X21212500Y-154580000D03*
%TD*%
D13*
%TO.C,J4*%
X44700000Y-20250000D03*
D14*
X47240000Y-20250000D03*
X49780000Y-20250000D03*
X52320000Y-20250000D03*
%TD*%
D15*
%TO.C,J3*%
X23752500Y-47420000D03*
D16*
X21212500Y-47420000D03*
X23752500Y-49960000D03*
X21212500Y-49960000D03*
X23752500Y-52500000D03*
X21212500Y-52500000D03*
X23752500Y-55040000D03*
X21212500Y-55040000D03*
X23752500Y-57580000D03*
X21212500Y-57580000D03*
%TD*%
M02*
