%TF.GenerationSoftware,KiCad,Pcbnew,7.0.10-7.0.10~ubuntu22.04.1*%
%TF.CreationDate,2024-02-07T13:06:57+01:00*%
%TF.ProjectId,polykit-x-controlboard,706f6c79-6b69-4742-9d78-2d636f6e7472,v0.0.2*%
%TF.SameCoordinates,Original*%
%TF.FileFunction,Legend,Bot*%
%TF.FilePolarity,Positive*%
%FSLAX46Y46*%
G04 Gerber Fmt 4.6, Leading zero omitted, Abs format (unit mm)*
G04 Created by KiCad (PCBNEW 7.0.10-7.0.10~ubuntu22.04.1) date 2024-02-07 13:06:57*
%MOMM*%
%LPD*%
G01*
G04 APERTURE LIST*
%ADD10C,0.300000*%
%ADD11C,0.150000*%
%ADD12C,0.120000*%
G04 APERTURE END LIST*
D10*
X203300828Y-112483082D02*
X204372257Y-112483082D01*
X204372257Y-112483082D02*
X204586542Y-112411653D01*
X204586542Y-112411653D02*
X204729400Y-112268796D01*
X204729400Y-112268796D02*
X204800828Y-112054510D01*
X204800828Y-112054510D02*
X204800828Y-111911653D01*
X204800828Y-113911653D02*
X204800828Y-113197367D01*
X204800828Y-113197367D02*
X203300828Y-113197367D01*
X204657971Y-115268796D02*
X204729400Y-115197368D01*
X204729400Y-115197368D02*
X204800828Y-114983082D01*
X204800828Y-114983082D02*
X204800828Y-114840225D01*
X204800828Y-114840225D02*
X204729400Y-114625939D01*
X204729400Y-114625939D02*
X204586542Y-114483082D01*
X204586542Y-114483082D02*
X204443685Y-114411653D01*
X204443685Y-114411653D02*
X204157971Y-114340225D01*
X204157971Y-114340225D02*
X203943685Y-114340225D01*
X203943685Y-114340225D02*
X203657971Y-114411653D01*
X203657971Y-114411653D02*
X203515114Y-114483082D01*
X203515114Y-114483082D02*
X203372257Y-114625939D01*
X203372257Y-114625939D02*
X203300828Y-114840225D01*
X203300828Y-114840225D02*
X203300828Y-114983082D01*
X203300828Y-114983082D02*
X203372257Y-115197368D01*
X203372257Y-115197368D02*
X203443685Y-115268796D01*
X203300828Y-116340225D02*
X204372257Y-116340225D01*
X204372257Y-116340225D02*
X204586542Y-116268796D01*
X204586542Y-116268796D02*
X204729400Y-116125939D01*
X204729400Y-116125939D02*
X204800828Y-115911653D01*
X204800828Y-115911653D02*
X204800828Y-115768796D01*
X204800828Y-117768796D02*
X204800828Y-117054510D01*
X204800828Y-117054510D02*
X203300828Y-117054510D01*
X204657971Y-119125939D02*
X204729400Y-119054511D01*
X204729400Y-119054511D02*
X204800828Y-118840225D01*
X204800828Y-118840225D02*
X204800828Y-118697368D01*
X204800828Y-118697368D02*
X204729400Y-118483082D01*
X204729400Y-118483082D02*
X204586542Y-118340225D01*
X204586542Y-118340225D02*
X204443685Y-118268796D01*
X204443685Y-118268796D02*
X204157971Y-118197368D01*
X204157971Y-118197368D02*
X203943685Y-118197368D01*
X203943685Y-118197368D02*
X203657971Y-118268796D01*
X203657971Y-118268796D02*
X203515114Y-118340225D01*
X203515114Y-118340225D02*
X203372257Y-118483082D01*
X203372257Y-118483082D02*
X203300828Y-118697368D01*
X203300828Y-118697368D02*
X203300828Y-118840225D01*
X203300828Y-118840225D02*
X203372257Y-119054511D01*
X203372257Y-119054511D02*
X203443685Y-119125939D01*
X203300828Y-120197368D02*
X204372257Y-120197368D01*
X204372257Y-120197368D02*
X204586542Y-120125939D01*
X204586542Y-120125939D02*
X204729400Y-119983082D01*
X204729400Y-119983082D02*
X204800828Y-119768796D01*
X204800828Y-119768796D02*
X204800828Y-119625939D01*
X204800828Y-121625939D02*
X204800828Y-120911653D01*
X204800828Y-120911653D02*
X203300828Y-120911653D01*
X204657971Y-122983082D02*
X204729400Y-122911654D01*
X204729400Y-122911654D02*
X204800828Y-122697368D01*
X204800828Y-122697368D02*
X204800828Y-122554511D01*
X204800828Y-122554511D02*
X204729400Y-122340225D01*
X204729400Y-122340225D02*
X204586542Y-122197368D01*
X204586542Y-122197368D02*
X204443685Y-122125939D01*
X204443685Y-122125939D02*
X204157971Y-122054511D01*
X204157971Y-122054511D02*
X203943685Y-122054511D01*
X203943685Y-122054511D02*
X203657971Y-122125939D01*
X203657971Y-122125939D02*
X203515114Y-122197368D01*
X203515114Y-122197368D02*
X203372257Y-122340225D01*
X203372257Y-122340225D02*
X203300828Y-122554511D01*
X203300828Y-122554511D02*
X203300828Y-122697368D01*
X203300828Y-122697368D02*
X203372257Y-122911654D01*
X203372257Y-122911654D02*
X203443685Y-122983082D01*
X203300828Y-124054511D02*
X204372257Y-124054511D01*
X204372257Y-124054511D02*
X204586542Y-123983082D01*
X204586542Y-123983082D02*
X204729400Y-123840225D01*
X204729400Y-123840225D02*
X204800828Y-123625939D01*
X204800828Y-123625939D02*
X204800828Y-123483082D01*
X204800828Y-125483082D02*
X204800828Y-124768796D01*
X204800828Y-124768796D02*
X203300828Y-124768796D01*
X204657971Y-126840225D02*
X204729400Y-126768797D01*
X204729400Y-126768797D02*
X204800828Y-126554511D01*
X204800828Y-126554511D02*
X204800828Y-126411654D01*
X204800828Y-126411654D02*
X204729400Y-126197368D01*
X204729400Y-126197368D02*
X204586542Y-126054511D01*
X204586542Y-126054511D02*
X204443685Y-125983082D01*
X204443685Y-125983082D02*
X204157971Y-125911654D01*
X204157971Y-125911654D02*
X203943685Y-125911654D01*
X203943685Y-125911654D02*
X203657971Y-125983082D01*
X203657971Y-125983082D02*
X203515114Y-126054511D01*
X203515114Y-126054511D02*
X203372257Y-126197368D01*
X203372257Y-126197368D02*
X203300828Y-126411654D01*
X203300828Y-126411654D02*
X203300828Y-126554511D01*
X203300828Y-126554511D02*
X203372257Y-126768797D01*
X203372257Y-126768797D02*
X203443685Y-126840225D01*
D11*
X24583333Y-115334819D02*
X24583333Y-116049104D01*
X24583333Y-116049104D02*
X24630952Y-116191961D01*
X24630952Y-116191961D02*
X24726190Y-116287200D01*
X24726190Y-116287200D02*
X24869047Y-116334819D01*
X24869047Y-116334819D02*
X24964285Y-116334819D01*
X23583333Y-116334819D02*
X24154761Y-116334819D01*
X23869047Y-116334819D02*
X23869047Y-115334819D01*
X23869047Y-115334819D02*
X23964285Y-115477676D01*
X23964285Y-115477676D02*
X24059523Y-115572914D01*
X24059523Y-115572914D02*
X24154761Y-115620533D01*
X28440475Y-73574819D02*
X28440475Y-72574819D01*
X28440475Y-72574819D02*
X28107142Y-73289104D01*
X28107142Y-73289104D02*
X27773809Y-72574819D01*
X27773809Y-72574819D02*
X27773809Y-73574819D01*
X26726190Y-73479580D02*
X26773809Y-73527200D01*
X26773809Y-73527200D02*
X26916666Y-73574819D01*
X26916666Y-73574819D02*
X27011904Y-73574819D01*
X27011904Y-73574819D02*
X27154761Y-73527200D01*
X27154761Y-73527200D02*
X27249999Y-73431961D01*
X27249999Y-73431961D02*
X27297618Y-73336723D01*
X27297618Y-73336723D02*
X27345237Y-73146247D01*
X27345237Y-73146247D02*
X27345237Y-73003390D01*
X27345237Y-73003390D02*
X27297618Y-72812914D01*
X27297618Y-72812914D02*
X27249999Y-72717676D01*
X27249999Y-72717676D02*
X27154761Y-72622438D01*
X27154761Y-72622438D02*
X27011904Y-72574819D01*
X27011904Y-72574819D02*
X26916666Y-72574819D01*
X26916666Y-72574819D02*
X26773809Y-72622438D01*
X26773809Y-72622438D02*
X26726190Y-72670057D01*
X26297618Y-72574819D02*
X26297618Y-73384342D01*
X26297618Y-73384342D02*
X26249999Y-73479580D01*
X26249999Y-73479580D02*
X26202380Y-73527200D01*
X26202380Y-73527200D02*
X26107142Y-73574819D01*
X26107142Y-73574819D02*
X25916666Y-73574819D01*
X25916666Y-73574819D02*
X25821428Y-73527200D01*
X25821428Y-73527200D02*
X25773809Y-73479580D01*
X25773809Y-73479580D02*
X25726190Y-73384342D01*
X25726190Y-73384342D02*
X25726190Y-72574819D01*
X25488095Y-73670057D02*
X24726190Y-73670057D01*
X24154761Y-73051009D02*
X24011904Y-73098628D01*
X24011904Y-73098628D02*
X23964285Y-73146247D01*
X23964285Y-73146247D02*
X23916666Y-73241485D01*
X23916666Y-73241485D02*
X23916666Y-73384342D01*
X23916666Y-73384342D02*
X23964285Y-73479580D01*
X23964285Y-73479580D02*
X24011904Y-73527200D01*
X24011904Y-73527200D02*
X24107142Y-73574819D01*
X24107142Y-73574819D02*
X24488094Y-73574819D01*
X24488094Y-73574819D02*
X24488094Y-72574819D01*
X24488094Y-72574819D02*
X24154761Y-72574819D01*
X24154761Y-72574819D02*
X24059523Y-72622438D01*
X24059523Y-72622438D02*
X24011904Y-72670057D01*
X24011904Y-72670057D02*
X23964285Y-72765295D01*
X23964285Y-72765295D02*
X23964285Y-72860533D01*
X23964285Y-72860533D02*
X24011904Y-72955771D01*
X24011904Y-72955771D02*
X24059523Y-73003390D01*
X24059523Y-73003390D02*
X24154761Y-73051009D01*
X24154761Y-73051009D02*
X24488094Y-73051009D01*
X23297618Y-72574819D02*
X23107142Y-72574819D01*
X23107142Y-72574819D02*
X23011904Y-72622438D01*
X23011904Y-72622438D02*
X22916666Y-72717676D01*
X22916666Y-72717676D02*
X22869047Y-72908152D01*
X22869047Y-72908152D02*
X22869047Y-73241485D01*
X22869047Y-73241485D02*
X22916666Y-73431961D01*
X22916666Y-73431961D02*
X23011904Y-73527200D01*
X23011904Y-73527200D02*
X23107142Y-73574819D01*
X23107142Y-73574819D02*
X23297618Y-73574819D01*
X23297618Y-73574819D02*
X23392856Y-73527200D01*
X23392856Y-73527200D02*
X23488094Y-73431961D01*
X23488094Y-73431961D02*
X23535713Y-73241485D01*
X23535713Y-73241485D02*
X23535713Y-72908152D01*
X23535713Y-72908152D02*
X23488094Y-72717676D01*
X23488094Y-72717676D02*
X23392856Y-72622438D01*
X23392856Y-72622438D02*
X23297618Y-72574819D01*
X22488094Y-73289104D02*
X22011904Y-73289104D01*
X22583332Y-73574819D02*
X22249999Y-72574819D01*
X22249999Y-72574819D02*
X21916666Y-73574819D01*
X21011904Y-73574819D02*
X21345237Y-73098628D01*
X21583332Y-73574819D02*
X21583332Y-72574819D01*
X21583332Y-72574819D02*
X21202380Y-72574819D01*
X21202380Y-72574819D02*
X21107142Y-72622438D01*
X21107142Y-72622438D02*
X21059523Y-72670057D01*
X21059523Y-72670057D02*
X21011904Y-72765295D01*
X21011904Y-72765295D02*
X21011904Y-72908152D01*
X21011904Y-72908152D02*
X21059523Y-73003390D01*
X21059523Y-73003390D02*
X21107142Y-73051009D01*
X21107142Y-73051009D02*
X21202380Y-73098628D01*
X21202380Y-73098628D02*
X21583332Y-73098628D01*
X20583332Y-73574819D02*
X20583332Y-72574819D01*
X20583332Y-72574819D02*
X20345237Y-72574819D01*
X20345237Y-72574819D02*
X20202380Y-72622438D01*
X20202380Y-72622438D02*
X20107142Y-72717676D01*
X20107142Y-72717676D02*
X20059523Y-72812914D01*
X20059523Y-72812914D02*
X20011904Y-73003390D01*
X20011904Y-73003390D02*
X20011904Y-73146247D01*
X20011904Y-73146247D02*
X20059523Y-73336723D01*
X20059523Y-73336723D02*
X20107142Y-73431961D01*
X20107142Y-73431961D02*
X20202380Y-73527200D01*
X20202380Y-73527200D02*
X20345237Y-73574819D01*
X20345237Y-73574819D02*
X20583332Y-73574819D01*
X22815833Y-137774819D02*
X22815833Y-138489104D01*
X22815833Y-138489104D02*
X22863452Y-138631961D01*
X22863452Y-138631961D02*
X22958690Y-138727200D01*
X22958690Y-138727200D02*
X23101547Y-138774819D01*
X23101547Y-138774819D02*
X23196785Y-138774819D01*
X22387261Y-137870057D02*
X22339642Y-137822438D01*
X22339642Y-137822438D02*
X22244404Y-137774819D01*
X22244404Y-137774819D02*
X22006309Y-137774819D01*
X22006309Y-137774819D02*
X21911071Y-137822438D01*
X21911071Y-137822438D02*
X21863452Y-137870057D01*
X21863452Y-137870057D02*
X21815833Y-137965295D01*
X21815833Y-137965295D02*
X21815833Y-138060533D01*
X21815833Y-138060533D02*
X21863452Y-138203390D01*
X21863452Y-138203390D02*
X22434880Y-138774819D01*
X22434880Y-138774819D02*
X21815833Y-138774819D01*
X27815832Y-160134819D02*
X27149166Y-161134819D01*
X27149166Y-160134819D02*
X27815832Y-161134819D01*
X26625356Y-160563390D02*
X26720594Y-160515771D01*
X26720594Y-160515771D02*
X26768213Y-160468152D01*
X26768213Y-160468152D02*
X26815832Y-160372914D01*
X26815832Y-160372914D02*
X26815832Y-160325295D01*
X26815832Y-160325295D02*
X26768213Y-160230057D01*
X26768213Y-160230057D02*
X26720594Y-160182438D01*
X26720594Y-160182438D02*
X26625356Y-160134819D01*
X26625356Y-160134819D02*
X26434880Y-160134819D01*
X26434880Y-160134819D02*
X26339642Y-160182438D01*
X26339642Y-160182438D02*
X26292023Y-160230057D01*
X26292023Y-160230057D02*
X26244404Y-160325295D01*
X26244404Y-160325295D02*
X26244404Y-160372914D01*
X26244404Y-160372914D02*
X26292023Y-160468152D01*
X26292023Y-160468152D02*
X26339642Y-160515771D01*
X26339642Y-160515771D02*
X26434880Y-160563390D01*
X26434880Y-160563390D02*
X26625356Y-160563390D01*
X26625356Y-160563390D02*
X26720594Y-160611009D01*
X26720594Y-160611009D02*
X26768213Y-160658628D01*
X26768213Y-160658628D02*
X26815832Y-160753866D01*
X26815832Y-160753866D02*
X26815832Y-160944342D01*
X26815832Y-160944342D02*
X26768213Y-161039580D01*
X26768213Y-161039580D02*
X26720594Y-161087200D01*
X26720594Y-161087200D02*
X26625356Y-161134819D01*
X26625356Y-161134819D02*
X26434880Y-161134819D01*
X26434880Y-161134819D02*
X26339642Y-161087200D01*
X26339642Y-161087200D02*
X26292023Y-161039580D01*
X26292023Y-161039580D02*
X26244404Y-160944342D01*
X26244404Y-160944342D02*
X26244404Y-160753866D01*
X26244404Y-160753866D02*
X26292023Y-160658628D01*
X26292023Y-160658628D02*
X26339642Y-160611009D01*
X26339642Y-160611009D02*
X26434880Y-160563390D01*
X26053928Y-161230057D02*
X25292023Y-161230057D01*
X25053927Y-161134819D02*
X25053927Y-160134819D01*
X24625356Y-160230057D02*
X24577737Y-160182438D01*
X24577737Y-160182438D02*
X24482499Y-160134819D01*
X24482499Y-160134819D02*
X24244404Y-160134819D01*
X24244404Y-160134819D02*
X24149166Y-160182438D01*
X24149166Y-160182438D02*
X24101547Y-160230057D01*
X24101547Y-160230057D02*
X24053928Y-160325295D01*
X24053928Y-160325295D02*
X24053928Y-160420533D01*
X24053928Y-160420533D02*
X24101547Y-160563390D01*
X24101547Y-160563390D02*
X24672975Y-161134819D01*
X24672975Y-161134819D02*
X24053928Y-161134819D01*
X23053928Y-161039580D02*
X23101547Y-161087200D01*
X23101547Y-161087200D02*
X23244404Y-161134819D01*
X23244404Y-161134819D02*
X23339642Y-161134819D01*
X23339642Y-161134819D02*
X23482499Y-161087200D01*
X23482499Y-161087200D02*
X23577737Y-160991961D01*
X23577737Y-160991961D02*
X23625356Y-160896723D01*
X23625356Y-160896723D02*
X23672975Y-160706247D01*
X23672975Y-160706247D02*
X23672975Y-160563390D01*
X23672975Y-160563390D02*
X23625356Y-160372914D01*
X23625356Y-160372914D02*
X23577737Y-160277676D01*
X23577737Y-160277676D02*
X23482499Y-160182438D01*
X23482499Y-160182438D02*
X23339642Y-160134819D01*
X23339642Y-160134819D02*
X23244404Y-160134819D01*
X23244404Y-160134819D02*
X23101547Y-160182438D01*
X23101547Y-160182438D02*
X23053928Y-160230057D01*
X22863452Y-161230057D02*
X22101547Y-161230057D01*
X21863451Y-161134819D02*
X21863451Y-160134819D01*
X21863451Y-160134819D02*
X21482499Y-160134819D01*
X21482499Y-160134819D02*
X21387261Y-160182438D01*
X21387261Y-160182438D02*
X21339642Y-160230057D01*
X21339642Y-160230057D02*
X21292023Y-160325295D01*
X21292023Y-160325295D02*
X21292023Y-160468152D01*
X21292023Y-160468152D02*
X21339642Y-160563390D01*
X21339642Y-160563390D02*
X21387261Y-160611009D01*
X21387261Y-160611009D02*
X21482499Y-160658628D01*
X21482499Y-160658628D02*
X21863451Y-160658628D01*
X20672975Y-160134819D02*
X20482499Y-160134819D01*
X20482499Y-160134819D02*
X20387261Y-160182438D01*
X20387261Y-160182438D02*
X20292023Y-160277676D01*
X20292023Y-160277676D02*
X20244404Y-160468152D01*
X20244404Y-160468152D02*
X20244404Y-160801485D01*
X20244404Y-160801485D02*
X20292023Y-160991961D01*
X20292023Y-160991961D02*
X20387261Y-161087200D01*
X20387261Y-161087200D02*
X20482499Y-161134819D01*
X20482499Y-161134819D02*
X20672975Y-161134819D01*
X20672975Y-161134819D02*
X20768213Y-161087200D01*
X20768213Y-161087200D02*
X20863451Y-160991961D01*
X20863451Y-160991961D02*
X20911070Y-160801485D01*
X20911070Y-160801485D02*
X20911070Y-160468152D01*
X20911070Y-160468152D02*
X20863451Y-160277676D01*
X20863451Y-160277676D02*
X20768213Y-160182438D01*
X20768213Y-160182438D02*
X20672975Y-160134819D01*
X19911070Y-160134819D02*
X19672975Y-161134819D01*
X19672975Y-161134819D02*
X19482499Y-160420533D01*
X19482499Y-160420533D02*
X19292023Y-161134819D01*
X19292023Y-161134819D02*
X19053928Y-160134819D01*
X18672975Y-160611009D02*
X18339642Y-160611009D01*
X18196785Y-161134819D02*
X18672975Y-161134819D01*
X18672975Y-161134819D02*
X18672975Y-160134819D01*
X18672975Y-160134819D02*
X18196785Y-160134819D01*
X17196785Y-161134819D02*
X17530118Y-160658628D01*
X17768213Y-161134819D02*
X17768213Y-160134819D01*
X17768213Y-160134819D02*
X17387261Y-160134819D01*
X17387261Y-160134819D02*
X17292023Y-160182438D01*
X17292023Y-160182438D02*
X17244404Y-160230057D01*
X17244404Y-160230057D02*
X17196785Y-160325295D01*
X17196785Y-160325295D02*
X17196785Y-160468152D01*
X17196785Y-160468152D02*
X17244404Y-160563390D01*
X17244404Y-160563390D02*
X17292023Y-160611009D01*
X17292023Y-160611009D02*
X17387261Y-160658628D01*
X17387261Y-160658628D02*
X17768213Y-160658628D01*
X41824819Y-19916666D02*
X42539104Y-19916666D01*
X42539104Y-19916666D02*
X42681961Y-19869047D01*
X42681961Y-19869047D02*
X42777200Y-19773809D01*
X42777200Y-19773809D02*
X42824819Y-19630952D01*
X42824819Y-19630952D02*
X42824819Y-19535714D01*
X42158152Y-20821428D02*
X42824819Y-20821428D01*
X41777200Y-20583333D02*
X42491485Y-20345238D01*
X42491485Y-20345238D02*
X42491485Y-20964285D01*
X55104819Y-17511905D02*
X54104819Y-17511905D01*
X54104819Y-17511905D02*
X54104819Y-17750000D01*
X54104819Y-17750000D02*
X54152438Y-17892857D01*
X54152438Y-17892857D02*
X54247676Y-17988095D01*
X54247676Y-17988095D02*
X54342914Y-18035714D01*
X54342914Y-18035714D02*
X54533390Y-18083333D01*
X54533390Y-18083333D02*
X54676247Y-18083333D01*
X54676247Y-18083333D02*
X54866723Y-18035714D01*
X54866723Y-18035714D02*
X54961961Y-17988095D01*
X54961961Y-17988095D02*
X55057200Y-17892857D01*
X55057200Y-17892857D02*
X55104819Y-17750000D01*
X55104819Y-17750000D02*
X55104819Y-17511905D01*
X55104819Y-18511905D02*
X54104819Y-18511905D01*
X55057200Y-18940476D02*
X55104819Y-19083333D01*
X55104819Y-19083333D02*
X55104819Y-19321428D01*
X55104819Y-19321428D02*
X55057200Y-19416666D01*
X55057200Y-19416666D02*
X55009580Y-19464285D01*
X55009580Y-19464285D02*
X54914342Y-19511904D01*
X54914342Y-19511904D02*
X54819104Y-19511904D01*
X54819104Y-19511904D02*
X54723866Y-19464285D01*
X54723866Y-19464285D02*
X54676247Y-19416666D01*
X54676247Y-19416666D02*
X54628628Y-19321428D01*
X54628628Y-19321428D02*
X54581009Y-19130952D01*
X54581009Y-19130952D02*
X54533390Y-19035714D01*
X54533390Y-19035714D02*
X54485771Y-18988095D01*
X54485771Y-18988095D02*
X54390533Y-18940476D01*
X54390533Y-18940476D02*
X54295295Y-18940476D01*
X54295295Y-18940476D02*
X54200057Y-18988095D01*
X54200057Y-18988095D02*
X54152438Y-19035714D01*
X54152438Y-19035714D02*
X54104819Y-19130952D01*
X54104819Y-19130952D02*
X54104819Y-19369047D01*
X54104819Y-19369047D02*
X54152438Y-19511904D01*
X55104819Y-19940476D02*
X54104819Y-19940476D01*
X54104819Y-19940476D02*
X54104819Y-20321428D01*
X54104819Y-20321428D02*
X54152438Y-20416666D01*
X54152438Y-20416666D02*
X54200057Y-20464285D01*
X54200057Y-20464285D02*
X54295295Y-20511904D01*
X54295295Y-20511904D02*
X54438152Y-20511904D01*
X54438152Y-20511904D02*
X54533390Y-20464285D01*
X54533390Y-20464285D02*
X54581009Y-20416666D01*
X54581009Y-20416666D02*
X54628628Y-20321428D01*
X54628628Y-20321428D02*
X54628628Y-19940476D01*
X55104819Y-21416666D02*
X55104819Y-20940476D01*
X55104819Y-20940476D02*
X54104819Y-20940476D01*
X54819104Y-21702381D02*
X54819104Y-22178571D01*
X55104819Y-21607143D02*
X54104819Y-21940476D01*
X54104819Y-21940476D02*
X55104819Y-22273809D01*
X54628628Y-22797619D02*
X55104819Y-22797619D01*
X54104819Y-22464286D02*
X54628628Y-22797619D01*
X54628628Y-22797619D02*
X54104819Y-23130952D01*
X22815833Y-40774819D02*
X22815833Y-41489104D01*
X22815833Y-41489104D02*
X22863452Y-41631961D01*
X22863452Y-41631961D02*
X22958690Y-41727200D01*
X22958690Y-41727200D02*
X23101547Y-41774819D01*
X23101547Y-41774819D02*
X23196785Y-41774819D01*
X22434880Y-40774819D02*
X21815833Y-40774819D01*
X21815833Y-40774819D02*
X22149166Y-41155771D01*
X22149166Y-41155771D02*
X22006309Y-41155771D01*
X22006309Y-41155771D02*
X21911071Y-41203390D01*
X21911071Y-41203390D02*
X21863452Y-41251009D01*
X21863452Y-41251009D02*
X21815833Y-41346247D01*
X21815833Y-41346247D02*
X21815833Y-41584342D01*
X21815833Y-41584342D02*
X21863452Y-41679580D01*
X21863452Y-41679580D02*
X21911071Y-41727200D01*
X21911071Y-41727200D02*
X22006309Y-41774819D01*
X22006309Y-41774819D02*
X22292023Y-41774819D01*
X22292023Y-41774819D02*
X22387261Y-41727200D01*
X22387261Y-41727200D02*
X22434880Y-41679580D01*
X28053928Y-63134819D02*
X27387262Y-64134819D01*
X27387262Y-63134819D02*
X28053928Y-64134819D01*
X26863452Y-63563390D02*
X26958690Y-63515771D01*
X26958690Y-63515771D02*
X27006309Y-63468152D01*
X27006309Y-63468152D02*
X27053928Y-63372914D01*
X27053928Y-63372914D02*
X27053928Y-63325295D01*
X27053928Y-63325295D02*
X27006309Y-63230057D01*
X27006309Y-63230057D02*
X26958690Y-63182438D01*
X26958690Y-63182438D02*
X26863452Y-63134819D01*
X26863452Y-63134819D02*
X26672976Y-63134819D01*
X26672976Y-63134819D02*
X26577738Y-63182438D01*
X26577738Y-63182438D02*
X26530119Y-63230057D01*
X26530119Y-63230057D02*
X26482500Y-63325295D01*
X26482500Y-63325295D02*
X26482500Y-63372914D01*
X26482500Y-63372914D02*
X26530119Y-63468152D01*
X26530119Y-63468152D02*
X26577738Y-63515771D01*
X26577738Y-63515771D02*
X26672976Y-63563390D01*
X26672976Y-63563390D02*
X26863452Y-63563390D01*
X26863452Y-63563390D02*
X26958690Y-63611009D01*
X26958690Y-63611009D02*
X27006309Y-63658628D01*
X27006309Y-63658628D02*
X27053928Y-63753866D01*
X27053928Y-63753866D02*
X27053928Y-63944342D01*
X27053928Y-63944342D02*
X27006309Y-64039580D01*
X27006309Y-64039580D02*
X26958690Y-64087200D01*
X26958690Y-64087200D02*
X26863452Y-64134819D01*
X26863452Y-64134819D02*
X26672976Y-64134819D01*
X26672976Y-64134819D02*
X26577738Y-64087200D01*
X26577738Y-64087200D02*
X26530119Y-64039580D01*
X26530119Y-64039580D02*
X26482500Y-63944342D01*
X26482500Y-63944342D02*
X26482500Y-63753866D01*
X26482500Y-63753866D02*
X26530119Y-63658628D01*
X26530119Y-63658628D02*
X26577738Y-63611009D01*
X26577738Y-63611009D02*
X26672976Y-63563390D01*
X26292024Y-64230057D02*
X25530119Y-64230057D01*
X25292023Y-63611009D02*
X24958690Y-63611009D01*
X24815833Y-64134819D02*
X25292023Y-64134819D01*
X25292023Y-64134819D02*
X25292023Y-63134819D01*
X25292023Y-63134819D02*
X24815833Y-63134819D01*
X24482499Y-63134819D02*
X23815833Y-64134819D01*
X23815833Y-63134819D02*
X24482499Y-64134819D01*
X23577737Y-63134819D02*
X23006309Y-63134819D01*
X23292023Y-64134819D02*
X23292023Y-63134819D01*
X22911071Y-64230057D02*
X22149166Y-64230057D01*
X21911070Y-64134819D02*
X21911070Y-63134819D01*
X21911070Y-63134819D02*
X21672975Y-63134819D01*
X21672975Y-63134819D02*
X21530118Y-63182438D01*
X21530118Y-63182438D02*
X21434880Y-63277676D01*
X21434880Y-63277676D02*
X21387261Y-63372914D01*
X21387261Y-63372914D02*
X21339642Y-63563390D01*
X21339642Y-63563390D02*
X21339642Y-63706247D01*
X21339642Y-63706247D02*
X21387261Y-63896723D01*
X21387261Y-63896723D02*
X21434880Y-63991961D01*
X21434880Y-63991961D02*
X21530118Y-64087200D01*
X21530118Y-64087200D02*
X21672975Y-64134819D01*
X21672975Y-64134819D02*
X21911070Y-64134819D01*
X20911070Y-64134819D02*
X20911070Y-63134819D01*
X19911071Y-63182438D02*
X20006309Y-63134819D01*
X20006309Y-63134819D02*
X20149166Y-63134819D01*
X20149166Y-63134819D02*
X20292023Y-63182438D01*
X20292023Y-63182438D02*
X20387261Y-63277676D01*
X20387261Y-63277676D02*
X20434880Y-63372914D01*
X20434880Y-63372914D02*
X20482499Y-63563390D01*
X20482499Y-63563390D02*
X20482499Y-63706247D01*
X20482499Y-63706247D02*
X20434880Y-63896723D01*
X20434880Y-63896723D02*
X20387261Y-63991961D01*
X20387261Y-63991961D02*
X20292023Y-64087200D01*
X20292023Y-64087200D02*
X20149166Y-64134819D01*
X20149166Y-64134819D02*
X20053928Y-64134819D01*
X20053928Y-64134819D02*
X19911071Y-64087200D01*
X19911071Y-64087200D02*
X19863452Y-64039580D01*
X19863452Y-64039580D02*
X19863452Y-63706247D01*
X19863452Y-63706247D02*
X20053928Y-63706247D01*
X19434880Y-64134819D02*
X19434880Y-63134819D01*
X19101547Y-63134819D02*
X18530119Y-63134819D01*
X18815833Y-64134819D02*
X18815833Y-63134819D01*
X18244404Y-63849104D02*
X17768214Y-63849104D01*
X18339642Y-64134819D02*
X18006309Y-63134819D01*
X18006309Y-63134819D02*
X17672976Y-64134819D01*
X16863452Y-64134819D02*
X17339642Y-64134819D01*
X17339642Y-64134819D02*
X17339642Y-63134819D01*
D12*
%TO.C,J1*%
X22920000Y-74120000D02*
X25580000Y-74120000D01*
X22920000Y-112280000D02*
X22920000Y-74120000D01*
X22920000Y-112280000D02*
X25580000Y-112280000D01*
X22920000Y-113550000D02*
X22920000Y-114880000D01*
X22920000Y-114880000D02*
X24250000Y-114880000D01*
X25580000Y-112280000D02*
X25580000Y-74120000D01*
%TO.C,J2*%
X28432500Y-144920000D02*
X27432500Y-144420000D01*
X28432500Y-143920000D02*
X28432500Y-144920000D01*
X27432500Y-144420000D02*
X28432500Y-143920000D01*
X27042500Y-159790000D02*
X27042500Y-139210000D01*
X27042500Y-147450000D02*
X25732500Y-147450000D01*
X27042500Y-139210000D02*
X17922500Y-139210000D01*
X25732500Y-158490000D02*
X25732500Y-151550000D01*
X25732500Y-151550000D02*
X27042500Y-151550000D01*
X25732500Y-151550000D02*
X25732500Y-151550000D01*
X25732500Y-147450000D02*
X25732500Y-140510000D01*
X25732500Y-140510000D02*
X19232500Y-140510000D01*
X19232500Y-158490000D02*
X25732500Y-158490000D01*
X19232500Y-140510000D02*
X19232500Y-158490000D01*
X17922500Y-159790000D02*
X27042500Y-159790000D01*
X17922500Y-139210000D02*
X17922500Y-159790000D01*
%TO.C,J4*%
X53650000Y-18920000D02*
X53650000Y-21580000D01*
X45970000Y-18920000D02*
X53650000Y-18920000D01*
X45970000Y-18920000D02*
X45970000Y-21580000D01*
X44700000Y-18920000D02*
X43370000Y-18920000D01*
X43370000Y-18920000D02*
X43370000Y-20250000D01*
X45970000Y-21580000D02*
X53650000Y-21580000D01*
%TO.C,J3*%
X28432500Y-47920000D02*
X27432500Y-47420000D01*
X28432500Y-46920000D02*
X28432500Y-47920000D01*
X27432500Y-47420000D02*
X28432500Y-46920000D01*
X27042500Y-62790000D02*
X27042500Y-42210000D01*
X27042500Y-50450000D02*
X25732500Y-50450000D01*
X27042500Y-42210000D02*
X17922500Y-42210000D01*
X25732500Y-61490000D02*
X25732500Y-54550000D01*
X25732500Y-54550000D02*
X27042500Y-54550000D01*
X25732500Y-54550000D02*
X25732500Y-54550000D01*
X25732500Y-50450000D02*
X25732500Y-43510000D01*
X25732500Y-43510000D02*
X19232500Y-43510000D01*
X19232500Y-61490000D02*
X25732500Y-61490000D01*
X19232500Y-43510000D02*
X19232500Y-61490000D01*
X17922500Y-62790000D02*
X27042500Y-62790000D01*
X17922500Y-42210000D02*
X17922500Y-62790000D01*
%TD*%
M02*
