%TF.GenerationSoftware,KiCad,Pcbnew,7.0.10-7.0.10~ubuntu22.04.1*%
%TF.CreationDate,2024-02-07T13:06:56+01:00*%
%TF.ProjectId,polykit-x-controlboard,706f6c79-6b69-4742-9d78-2d636f6e7472,v0.0.2*%
%TF.SameCoordinates,Original*%
%TF.FileFunction,Paste,Top*%
%TF.FilePolarity,Positive*%
%FSLAX46Y46*%
G04 Gerber Fmt 4.6, Leading zero omitted, Abs format (unit mm)*
G04 Created by KiCad (PCBNEW 7.0.10-7.0.10~ubuntu22.04.1) date 2024-02-07 13:06:56*
%MOMM*%
%LPD*%
G01*
G04 APERTURE LIST*
G04 Aperture macros list*
%AMRoundRect*
0 Rectangle with rounded corners*
0 $1 Rounding radius*
0 $2 $3 $4 $5 $6 $7 $8 $9 X,Y pos of 4 corners*
0 Add a 4 corners polygon primitive as box body*
4,1,4,$2,$3,$4,$5,$6,$7,$8,$9,$2,$3,0*
0 Add four circle primitives for the rounded corners*
1,1,$1+$1,$2,$3*
1,1,$1+$1,$4,$5*
1,1,$1+$1,$6,$7*
1,1,$1+$1,$8,$9*
0 Add four rect primitives between the rounded corners*
20,1,$1+$1,$2,$3,$4,$5,0*
20,1,$1+$1,$4,$5,$6,$7,0*
20,1,$1+$1,$6,$7,$8,$9,0*
20,1,$1+$1,$8,$9,$2,$3,0*%
G04 Aperture macros list end*
%ADD10R,0.450000X0.600000*%
%ADD11RoundRect,0.250000X0.625000X-0.400000X0.625000X0.400000X-0.625000X0.400000X-0.625000X-0.400000X0*%
%ADD12RoundRect,0.250000X-0.625000X0.400000X-0.625000X-0.400000X0.625000X-0.400000X0.625000X0.400000X0*%
%ADD13RoundRect,0.150000X-0.150000X0.875000X-0.150000X-0.875000X0.150000X-0.875000X0.150000X0.875000X0*%
%ADD14RoundRect,0.250000X0.325000X0.650000X-0.325000X0.650000X-0.325000X-0.650000X0.325000X-0.650000X0*%
G04 APERTURE END LIST*
D10*
%TO.C,D1*%
X63000000Y-72700000D03*
X63000000Y-74800000D03*
%TD*%
%TO.C,D2*%
X69000000Y-72650000D03*
X69000000Y-74750000D03*
%TD*%
D11*
%TO.C,R11*%
X37500000Y-89050000D03*
X37500000Y-85950000D03*
%TD*%
D12*
%TO.C,R33*%
X34000000Y-149450000D03*
X34000000Y-152550000D03*
%TD*%
%TO.C,R27*%
X78500000Y-161450000D03*
X78500000Y-164550000D03*
%TD*%
%TO.C,R23*%
X178500000Y-102450000D03*
X178500000Y-105550000D03*
%TD*%
%TO.C,R26*%
X51500000Y-162450000D03*
X51500000Y-165550000D03*
%TD*%
%TO.C,R30*%
X151500000Y-162450000D03*
X151500000Y-165550000D03*
%TD*%
D13*
%TO.C,U2*%
X73255000Y-147950000D03*
X71985000Y-147950000D03*
X70715000Y-147950000D03*
X69445000Y-147950000D03*
X68175000Y-147950000D03*
X66905000Y-147950000D03*
X65635000Y-147950000D03*
X64365000Y-147950000D03*
X63095000Y-147950000D03*
X61825000Y-147950000D03*
X60555000Y-147950000D03*
X59285000Y-147950000D03*
X58015000Y-147950000D03*
X56745000Y-147950000D03*
X56745000Y-157250000D03*
X58015000Y-157250000D03*
X59285000Y-157250000D03*
X60555000Y-157250000D03*
X61825000Y-157250000D03*
X63095000Y-157250000D03*
X64365000Y-157250000D03*
X65635000Y-157250000D03*
X66905000Y-157250000D03*
X68175000Y-157250000D03*
X69445000Y-157250000D03*
X70715000Y-157250000D03*
X71985000Y-157250000D03*
X73255000Y-157250000D03*
%TD*%
D12*
%TO.C,R32*%
X201500000Y-162450000D03*
X201500000Y-165550000D03*
%TD*%
%TO.C,R16*%
X51500000Y-132450000D03*
X51500000Y-135550000D03*
%TD*%
%TO.C,R13*%
X78500000Y-132450000D03*
X78500000Y-135550000D03*
%TD*%
%TO.C,R20*%
X101500000Y-102500000D03*
X101500000Y-105600000D03*
%TD*%
%TO.C,R12*%
X51500000Y-72450000D03*
X51500000Y-75550000D03*
%TD*%
%TO.C,R8*%
X151500000Y-132450000D03*
X151500000Y-135550000D03*
%TD*%
%TO.C,R17*%
X34500000Y-85950000D03*
X34500000Y-89050000D03*
%TD*%
D14*
%TO.C,C1*%
X60744258Y-102034015D03*
X57794258Y-102034015D03*
%TD*%
D10*
%TO.C,D4*%
X68750000Y-132200000D03*
X68750000Y-134300000D03*
%TD*%
D12*
%TO.C,R28*%
X101500000Y-162450000D03*
X101500000Y-165550000D03*
%TD*%
%TO.C,R25*%
X46000000Y-149450000D03*
X46000000Y-152550000D03*
%TD*%
%TO.C,R21*%
X128500000Y-102450000D03*
X128500000Y-105550000D03*
%TD*%
%TO.C,R6*%
X128500000Y-132450000D03*
X128500000Y-135550000D03*
%TD*%
%TO.C,R19*%
X78500000Y-101450000D03*
X78500000Y-104550000D03*
%TD*%
%TO.C,R3*%
X201500000Y-72450000D03*
X201500000Y-75550000D03*
%TD*%
%TO.C,R31*%
X178500000Y-162450000D03*
X178500000Y-165550000D03*
%TD*%
D13*
%TO.C,U1*%
X73255000Y-87850000D03*
X71985000Y-87850000D03*
X70715000Y-87850000D03*
X69445000Y-87850000D03*
X68175000Y-87850000D03*
X66905000Y-87850000D03*
X65635000Y-87850000D03*
X64365000Y-87850000D03*
X63095000Y-87850000D03*
X61825000Y-87850000D03*
X60555000Y-87850000D03*
X59285000Y-87850000D03*
X58015000Y-87850000D03*
X56745000Y-87850000D03*
X56745000Y-97150000D03*
X58015000Y-97150000D03*
X59285000Y-97150000D03*
X60555000Y-97150000D03*
X61825000Y-97150000D03*
X63095000Y-97150000D03*
X64365000Y-97150000D03*
X65635000Y-97150000D03*
X66905000Y-97150000D03*
X68175000Y-97150000D03*
X69445000Y-97150000D03*
X70715000Y-97150000D03*
X71985000Y-97150000D03*
X73255000Y-97150000D03*
%TD*%
D12*
%TO.C,R29*%
X128500000Y-162450000D03*
X128500000Y-165550000D03*
%TD*%
%TO.C,R7*%
X151500000Y-72450000D03*
X151500000Y-75550000D03*
%TD*%
%TO.C,R24*%
X201500000Y-102450000D03*
X201500000Y-105550000D03*
%TD*%
%TO.C,R22*%
X151500000Y-102450000D03*
X151500000Y-105550000D03*
%TD*%
%TO.C,R15*%
X38000000Y-149450000D03*
X38000000Y-152550000D03*
%TD*%
%TO.C,R14*%
X101500000Y-132450000D03*
X101500000Y-135550000D03*
%TD*%
%TO.C,R34*%
X42000000Y-149450000D03*
X42000000Y-152550000D03*
%TD*%
%TO.C,R5*%
X128500000Y-72450000D03*
X128500000Y-75550000D03*
%TD*%
%TO.C,R18*%
X51500000Y-102450000D03*
X51500000Y-105550000D03*
%TD*%
D10*
%TO.C,D3*%
X62750000Y-132200000D03*
X62750000Y-134300000D03*
%TD*%
D12*
%TO.C,R4*%
X201500000Y-132500000D03*
X201500000Y-135600000D03*
%TD*%
%TO.C,R1*%
X178500000Y-72450000D03*
X178500000Y-75550000D03*
%TD*%
D14*
%TO.C,C2*%
X60675000Y-162000000D03*
X57725000Y-162000000D03*
%TD*%
D12*
%TO.C,R9*%
X78500000Y-72450000D03*
X78500000Y-75550000D03*
%TD*%
%TO.C,R2*%
X178500000Y-132450000D03*
X178500000Y-135550000D03*
%TD*%
%TO.C,R10*%
X101500000Y-72450000D03*
X101500000Y-75550000D03*
%TD*%
M02*
